<svg xmlns="http://www.w3.org/2000/svg" width="430" height="430" style="width:100%;height:100%;transform:translate3d(0,0,0);content-visibility:visible" viewBox="0 0 430 430"><defs><clipPath id="a"><path d="M0 0h430v430H0z"/></clipPath><clipPath id="c"><path d="M0 0h430v430H0z"/></clipPath><clipPath id="b"><path d="M0 0h430v430H0z"/></clipPath></defs><g clip-path="url(#a)"><g clip-path="url(#b)" style="display:block"><g fill="#EBE6EF" style="display:block"><path d="M376.142 112.72a3.36 3.36 0 0 0-2.713-1.346c-1.249 0-18.487-.005-38.47-.013l-242.92-.085a1.96 1.96 0 0 0-1.931 2.283l27.487 163.03a1.958 1.958 0 0 0 2.512 1.543c1.602-.5 6.48-.873 12.657-1.346 6.518-.499 14.63-1.12 24.314-2.223l142.58-16.244c20.55-2.342 41.955-20.408 47.714-40.273l18.355-63.309 10.962-37.818c.462-1.591.263-3.121-.547-4.199z" class="secondary"/><path d="M-67.617 60.347a4.012 4.012 0 0 1-4.282-3.697L-82.316-85.286l-40.381-.014h-.001a2 2 0 0 0-1.972 2.333l28.089 166.599a2 2 0 0 0 2.567 1.577c1.637-.51 6.622-.892 12.934-1.375 6.661-.51 14.951-1.145 24.847-2.272l145.701-16.6c12.659-1.442 25.629-8.728 35.229-18.731L-67.617 60.347z" class="secondary" opacity=".5" style="mix-blend-mode:multiply" transform="translate(212.107 194.748) scale(.97858)"/></g><path fill="none" stroke="#3A3347" stroke-linecap="round" stroke-linejoin="round" stroke-width="1.89" d="M-23.625 17.125s-2.291.294-3.319 1.569C-28.554 20.69-28.52 24-22.875 24H24.5M-47-38h6.875c3.794 0 7.618 4.419 8.534 9.862L-24 17" class="tertiary" style="display:block" transform="matrix(3.7 0 0 3.7 205.75 214.998)"/><g fill="#646E78" style="display:block"><path d="M134.14 299.947c15.315 0 27.75 12.435 27.75 27.75s-12.435 27.75-27.75 27.75-27.75-12.435-27.75-27.75 12.435-27.75 27.75-27.75z" class="quaternary"/><path d="M8.276 17.07c-15.315 0-27.75-12.435-27.75-27.75 0-5.073 1.371-9.825 3.752-13.919-6.196 5.091-10.152 12.811-10.152 21.448 0 15.315 12.435 27.75 27.75 27.75 10.242 0 19.19-5.566 23.998-13.831A27.625 27.625 0 0 1 8.276 17.07z" class="quaternary" opacity=".5" style="mix-blend-mode:multiply" transform="translate(132.264 330.848)"/></g><g fill="#646E78" style="display:block"><path d="M297.89 299.947c15.316 0 27.75 12.435 27.75 27.75s-12.434 27.75-27.75 27.75c-15.314 0-27.75-12.435-27.75-27.75s12.436-27.75 27.75-27.75z" class="quaternary"/><path d="M8.276 17.07c-15.315 0-27.75-12.435-27.75-27.75 0-5.073 1.371-9.825 3.752-13.919-6.196 5.091-10.152 12.811-10.152 21.448 0 15.315 12.435 27.75 27.75 27.75 10.242 0 19.19-5.566 23.998-13.831A27.625 27.625 0 0 1 8.276 17.07z" class="quaternary" opacity=".5" style="mix-blend-mode:multiply" transform="translate(296.015 330.848)"/></g><path fill="none" stroke="#2CA58D" stroke-linecap="round" stroke-linejoin="round" stroke-width="3.5" d="M3.625 3.125v-16.5" class="primary" style="display:block" transform="rotate(90 4.769 185.893) scale(2.22)"/><path fill="none" stroke="#2CA58D" stroke-linecap="round" stroke-linejoin="round" stroke-width="3.5" d="M3.625 3.125v-16.5" class="primary" style="display:block" transform="rotate(90 25.166 206.29) scale(2.22)"/></g><g clip-path="url(#c)" style="display:none"><g style="display:none"><path class="secondary"/><path class="secondary" style="mix-blend-mode:multiply"/></g><path fill="none" class="tertiary" style="display:none"/><g style="display:none"><path class="quaternary"/><path class="quaternary" style="mix-blend-mode:multiply"/></g><g style="display:none"><path class="quaternary"/><path class="quaternary" style="mix-blend-mode:multiply"/></g><path fill="none" class="tertiary" style="display:none"/><path fill="none" class="primary" style="display:none"/><path fill="none" class="primary" style="display:none"/></g></g></svg>