<svg xmlns="http://www.w3.org/2000/svg" width="430" height="430" style="width:100%;height:100%;transform:translate3d(0,0,0);content-visibility:visible" viewBox="0 0 430 430"><defs><clipPath id="a"><path d="M0 0h430v430H0z"/></clipPath><clipPath id="d"><path d="M0 0h430v430H0z"/></clipPath><clipPath id="c"><path d="M0 0h430v430H0z"/></clipPath><clipPath id="b"><path d="M0 0h430v430H0z"/></clipPath></defs><g fill="none" clip-path="url(#a)"><g clip-path="url(#b)" style="display:none"><path class="secondary" style="display:none"/><path class="secondary" style="display:none"/><path class="secondary" style="display:none"/><path class="primary" style="display:none"/><path class="primary" style="display:none"/><path class="primary" style="display:none"/><path class="primary" style="display:none"/><g style="display:none"><path class="primary"/><path class="secondary"/></g></g><g stroke-linecap="round" stroke-linejoin="round" stroke-width="12" clip-path="url(#c)" style="display:block"><path stroke="#08A88A" d="M26-24.5v49L0 8.5l-26 16v-49" class="secondary" style="display:block" transform="translate(165 385.5)"/><path stroke="#121331" d="M122.23-108.272V165.5H-93.563c-7.951 0-15.066-3.139-20.297-8.37-5.126-5.126-8.37-12.241-8.37-20.192v-273.772m244.46 28.667H-93.563c-15.798 0-28.667-12.869-28.667-28.667s12.869-28.666 28.667-28.666H122.23z" class="primary" style="display:block" transform="translate(215.23 195.5)"/><g style="display:block"><path stroke="#121331" d="M170.864 304.5h88.272M145 269.5h140" class="primary"/><path stroke="#08A88A" d="M285 140H145v50h140z" class="secondary"/></g></g><g clip-path="url(#d)" style="display:none"><path class="secondary" style="display:none"/><path class="primary" style="display:none"/><g style="display:none"><path class="primary"/><path class="secondary"/></g></g></g></svg>