<svg xmlns="http://www.w3.org/2000/svg" width="430" height="430" style="width:100%;height:100%;transform:translate3d(0,0,0);content-visibility:visible" viewBox="0 0 430 430"><defs><clipPath id="a"><path d="M0 0h430v430H0z"/></clipPath><clipPath id="c"><path d="M0 0h430v430H0z"/></clipPath><clipPath id="b"><path d="M0 0h430v430H0z"/></clipPath></defs><g fill="none" clip-path="url(#a)"><g stroke-linecap="round" stroke-linejoin="round" stroke-width="12" clip-path="url(#b)" style="display:block"><path stroke="#121331" d="M-65.598-64.294c7.187-7.187 42.091 16.063 77.96 51.932s59.119 70.773 51.932 77.96" class="primary" style="display:block" transform="translate(204.662 235.805)"/><path stroke="#08A88A" d="M85.821 109.157c24.764-49.48-7.103-172.485-97.194-147.65q-.636.175-1.269.344" class="secondary" style="display:block" transform="translate(94.365 124.041)"/><path stroke="#08A88A" d="M-63.73-55.869a243 243 0 0 1 3.277-2.445C-29.292-81.147 49.852-80.24 59.22-17.285" class="secondary" style="display:block" transform="translate(271.582 320.237)"/><path stroke="#08A88A" d="M10.546-42.884c-.6 13.654-24.067 14.845-23.545 29.11C-12.465.834 12.15-.066 12.684 14.542s-24.082 15.507-23.548 30.115q0 0 0 0 .027.731.133 1.41" class="secondary" style="display:block" transform="translate(242.862 114.021)"/><path stroke="#08A88A" d="M10.546-42.884c-.6 13.654-24.067 14.845-23.545 29.11C-12.465.834 12.15-.066 12.684 14.542s-24.082 15.507-23.548 30.115q0 0 0 0 .027.731.133 1.41" class="secondary" style="display:block" transform="rotate(44 -67.665 456.128)"/><path stroke="#121331" d="M101.804 28.088c-7.187 7.187-42.09-16.064-77.959-51.933s-59.12-70.772-51.933-77.959l-1.289 3.43-71.96 190.685c-2.128 5.639 3.387 11.154 9.026 9.026l190.686-71.96z" class="primary" style="display:block" transform="translate(167.152 273.315)"/><path stroke="#121331" d="M-3.639 6.119 3.639-6.119" class="primary" style="display:none" transform="translate(189.825 66.699)"/><path stroke="#121331" d="M7.648-4.641-7.648 4.641" class="primary" style="display:none" transform="translate(321.339 360.936)"/><path stroke="#08A88A" d="M-3.639 6.119 3.639-6.119" class="secondary" style="display:none" transform="translate(377.481 289.473)"/><path stroke="#08A88A" d="M-5.034 5.034 5.034-5.034" class="secondary" style="display:none" transform="translate(69.916 228.923)"/><path stroke="#121331" d="M5.034 5.034-5.034-5.034" class="primary" style="display:none" transform="translate(341.08 81.3)"/><path stroke="#08A88A" d="M2.569 6.639-2.569-6.639" class="secondary" style="display:none" transform="translate(219.356 358.971)"/><path stroke="#121331" d="M-5.396-4.643 5.396 4.643" class="primary" style="display:none" transform="translate(98.089 142.67)"/><path stroke="#121331" d="M1.929 6.852-1.929-6.852" class="primary" style="display:none" transform="translate(355.817 208.186)"/><path stroke="#121331" d="M-3.639 6.119 3.639-6.119" class="primary" style="display:block" transform="translate(189.825 66.699)"/><path stroke="#121331" d="M7.648-4.641-7.648 4.641" class="primary" style="display:block" transform="translate(321.339 360.936)"/><path stroke="#08A88A" d="M-3.639 6.119 3.639-6.119" class="secondary" style="display:block" transform="translate(377.481 289.473)"/><path stroke="#08A88A" d="M-5.034 5.034 5.034-5.034" class="secondary" style="display:block" transform="translate(69.916 228.923)"/><path stroke="#121331" d="M5.034 5.034-5.034-5.034" class="primary" style="display:block" transform="translate(341.08 81.3)"/><path stroke="#08A88A" d="M2.569 6.639-2.569-6.639" class="secondary" style="display:block" transform="translate(219.356 358.971)"/><path stroke="#121331" d="M-5.396-4.643 5.396 4.643" class="primary" style="display:block" transform="translate(98.089 142.67)"/><path stroke="#121331" d="M1.929 6.852-1.929-6.852" class="primary" style="display:block" transform="translate(355.817 208.186)"/></g><g clip-path="url(#c)" style="display:none"><path class="primary" style="display:none"/><path class="secondary" style="display:none"/><path class="secondary" style="display:none"/><path class="secondary" style="display:none"/><path class="secondary" style="display:none"/><path class="primary" style="display:none"/><path class="primary" style="display:none"/><path class="primary" style="display:none"/><path class="secondary" style="display:none"/><path class="secondary" style="display:none"/><path class="primary" style="display:none"/><path class="secondary" style="display:none"/><path class="primary" style="display:none"/><path class="primary" style="display:none"/></g></g></svg>