<svg xmlns="http://www.w3.org/2000/svg" width="430" height="430" style="width:100%;height:100%;transform:translate3d(0,0,0);content-visibility:visible" viewBox="0 0 430 430"><defs><clipPath id="V"><path d="M0 0h430v430H0z"/></clipPath><clipPath id="aN"><path d="M0 0h430v430H0z"/></clipPath><clipPath id="U"><path d="M0 0h430v430H0z"/></clipPath><clipPath id="aP"><path d="M0 0h430v430H0z"/></clipPath><clipPath id="aO"><path d="M0 0h430v430H0z"/></clipPath><clipPath id="az"><path d="M0 0h430v430H0z"/></clipPath><clipPath id="aC"><path d="M0 0h430v430H0z"/></clipPath><clipPath id="aJ"><path fill="#fff" d="M469.352 62.689h-205v136.897h205V62.689"/></clipPath><clipPath id="aF"><path fill="#fff" d="M469.352 62.689h-205v136.897h205V62.689"/></clipPath><clipPath id="aE"><path fill="#fff" d="M225.828 192.5H88.5v220.732l123.828.233-.172-98.233 13.672-5.732v-117"/></clipPath><clipPath id="aD"><path fill="#fff" d="M354.502 370.206h-3.025l-120.262.001h-86.717c-14.858 0-28.44 6.383-35.084 16.488l-62.845 93.099 403.862-.001-60.845-93.099c-6.644-10.105-20.227-16.488-35.084-16.488"/></clipPath><clipPath id="aA"><path d="M0 0h430v430H0z"/></clipPath><clipPath id="am"><path d="M0 0h430v430H0z"/></clipPath><clipPath id="av"><path fill="#fff"/></clipPath><clipPath id="ar"><path fill="#fff"/></clipPath><clipPath id="aq"><path fill="#fff" d="M225.828 192.5H88.5v220.732l123.828.233-.172-98.233 13.672-5.732v-117"/></clipPath><clipPath id="ap"><path fill="#fff"/></clipPath><clipPath id="an"><path d="M0 0h430v430H0z"/></clipPath><clipPath id="Z"><path d="M0 0h430v430H0z"/></clipPath><clipPath id="ai"><path fill="#fff"/></clipPath><clipPath id="ae"><path fill="#fff"/></clipPath><clipPath id="ad"><path fill="#fff" d="M225.828 192.5H88.5v220.732l123.828.233-.172-98.233 13.672-5.732v-117"/></clipPath><clipPath id="ac"><path fill="#fff"/></clipPath><clipPath id="aa"><path d="M0 0h430v430H0z"/></clipPath><clipPath id="W"><path d="M0 0h430v430H0z"/></clipPath><clipPath id="X"><path d="M0 0h430v430H0z"/></clipPath><filter id="a" width="100%" height="100%" x="0%" y="0%" filterUnits="objectBoundingBox"><feComponentTransfer in="SourceGraphic"><feFuncA tableValues="1.0 0.0" type="table"/></feComponentTransfer></filter><filter id="c" width="100%" height="100%" x="0%" y="0%" filterUnits="objectBoundingBox"><feComponentTransfer in="SourceGraphic"><feFuncA tableValues="1.0 0.0" type="table"/></feComponentTransfer></filter><filter id="e" width="100%" height="100%" x="0%" y="0%" filterUnits="objectBoundingBox"><feComponentTransfer in="SourceGraphic"><feFuncA tableValues="1.0 0.0" type="table"/></feComponentTransfer></filter><filter id="g" width="100%" height="100%" x="0%" y="0%" filterUnits="objectBoundingBox"><feComponentTransfer in="SourceGraphic"><feFuncA tableValues="1.0 0.0" type="table"/></feComponentTransfer></filter><filter id="i" width="100%" height="100%" x="0%" y="0%" filterUnits="objectBoundingBox"><feComponentTransfer in="SourceGraphic"><feFuncA tableValues="1.0 0.0" type="table"/></feComponentTransfer></filter><filter id="k" width="100%" height="100%" x="0%" y="0%" filterUnits="objectBoundingBox"><feComponentTransfer in="SourceGraphic"><feFuncA tableValues="1.0 0.0" type="table"/></feComponentTransfer></filter><filter id="m" width="100%" height="100%" x="0%" y="0%" filterUnits="objectBoundingBox"><feComponentTransfer in="SourceGraphic"><feFuncA tableValues="1.0 0.0" type="table"/></feComponentTransfer></filter><filter id="o" width="100%" height="100%" x="0%" y="0%" filterUnits="objectBoundingBox"><feComponentTransfer in="SourceGraphic"><feFuncA tableValues="1.0 0.0" type="table"/></feComponentTransfer></filter><filter id="q" width="100%" height="100%" x="0%" y="0%" filterUnits="objectBoundingBox"><feComponentTransfer in="SourceGraphic"><feFuncA tableValues="1.0 0.0" type="table"/></feComponentTransfer></filter><filter id="s" width="100%" height="100%" x="0%" y="0%" filterUnits="objectBoundingBox"><feComponentTransfer in="SourceGraphic"><feFuncA tableValues="1.0 0.0" type="table"/></feComponentTransfer></filter><filter id="u" width="100%" height="100%" x="0%" y="0%" filterUnits="objectBoundingBox"><feComponentTransfer in="SourceGraphic"><feFuncA tableValues="1.0 0.0" type="table"/></feComponentTransfer></filter><filter id="w" width="100%" height="100%" x="0%" y="0%" filterUnits="objectBoundingBox"><feComponentTransfer in="SourceGraphic"><feFuncA tableValues="1.0 0.0" type="table"/></feComponentTransfer></filter><filter id="y" width="100%" height="100%" x="0%" y="0%" filterUnits="objectBoundingBox"><feComponentTransfer in="SourceGraphic"><feFuncA tableValues="1.0 0.0" type="table"/></feComponentTransfer></filter><filter id="A" width="100%" height="100%" x="0%" y="0%" filterUnits="objectBoundingBox"><feComponentTransfer in="SourceGraphic"><feFuncA tableValues="1.0 0.0" type="table"/></feComponentTransfer></filter><filter id="C" width="100%" height="100%" x="0%" y="0%" filterUnits="objectBoundingBox"><feComponentTransfer in="SourceGraphic"><feFuncA tableValues="1.0 0.0" type="table"/></feComponentTransfer></filter><filter id="E" width="100%" height="100%" x="0%" y="0%" filterUnits="objectBoundingBox"><feComponentTransfer in="SourceGraphic"><feFuncA tableValues="1.0 0.0" type="table"/></feComponentTransfer></filter><filter id="G" width="100%" height="100%" x="0%" y="0%" filterUnits="objectBoundingBox"><feComponentTransfer in="SourceGraphic"><feFuncA tableValues="1.0 0.0" type="table"/></feComponentTransfer></filter><filter id="I" width="100%" height="100%" x="0%" y="0%" filterUnits="objectBoundingBox"><feComponentTransfer in="SourceGraphic"><feFuncA tableValues="1.0 0.0" type="table"/></feComponentTransfer></filter><filter id="K" width="100%" height="100%" x="0%" y="0%" filterUnits="objectBoundingBox"><feComponentTransfer in="SourceGraphic"><feFuncA tableValues="1.0 0.0" type="table"/></feComponentTransfer></filter><filter id="M" width="100%" height="100%" x="0%" y="0%" filterUnits="objectBoundingBox"><feComponentTransfer in="SourceGraphic"><feFuncA tableValues="1.0 0.0" type="table"/></feComponentTransfer></filter><filter id="O" width="100%" height="100%" x="0%" y="0%" filterUnits="objectBoundingBox"><feComponentTransfer in="SourceGraphic"><feFuncA tableValues="1.0 0.0" type="table"/></feComponentTransfer></filter><filter id="Q" width="100%" height="100%" x="0%" y="0%" filterUnits="objectBoundingBox"><feComponentTransfer in="SourceGraphic"><feFuncA tableValues="1.0 0.0" type="table"/></feComponentTransfer></filter><filter id="S" width="100%" height="100%" x="0%" y="0%" filterUnits="objectBoundingBox"><feComponentTransfer in="SourceGraphic"><feFuncA tableValues="1.0 0.0" type="table"/></feComponentTransfer></filter><mask id="aQ" mask-type="alpha"><g filter="url(#a)"><path fill="#fff" d="M0 0h430v430H0z" opacity="0"/><use xmlns:ns1="http://www.w3.org/1999/xlink" ns1:href="#b"/></g></mask><mask id="aM" mask-type="alpha"><g filter="url(#c)"><path fill="#fff" d="M0 0h430v430H0z" opacity="0"/><use xmlns:ns2="http://www.w3.org/1999/xlink" ns2:href="#d"/></g></mask><mask id="aL" mask-type="alpha"><g filter="url(#e)"><path fill="#fff" d="M0 0h430v430H0z" opacity="0"/><use xmlns:ns3="http://www.w3.org/1999/xlink" ns3:href="#f"/></g></mask><mask id="aK" mask-type="alpha"><g filter="url(#g)"><path fill="#fff" d="M0 0h430v430H0z" opacity="0"/><use xmlns:ns4="http://www.w3.org/1999/xlink" ns4:href="#h"/></g></mask><mask id="aI" mask-type="alpha"><g filter="url(#i)"><path fill="#fff" d="M0 0h430v430H0z" opacity="0"/><use xmlns:ns5="http://www.w3.org/1999/xlink" ns5:href="#j"/></g></mask><mask id="aH" mask-type="alpha"><g filter="url(#k)"><path fill="#fff" d="M0 0h430v430H0z" opacity="0"/><use xmlns:ns6="http://www.w3.org/1999/xlink" ns6:href="#l"/></g></mask><mask id="aG" mask-type="alpha"><g filter="url(#m)"><path fill="#fff" d="M0 0h430v430H0z" opacity="0"/><use xmlns:ns7="http://www.w3.org/1999/xlink" ns7:href="#n"/></g></mask><mask id="aB" mask-type="alpha"><g filter="url(#o)"><path fill="#fff" d="M0 0h430v430H0z" opacity="0"/><use xmlns:ns8="http://www.w3.org/1999/xlink" ns8:href="#p"/></g></mask><mask id="ay" mask-type="alpha"><g filter="url(#q)"><path fill="#fff" d="M0 0h430v430H0z" opacity="0"/><use xmlns:ns9="http://www.w3.org/1999/xlink" ns9:href="#r"/></g></mask><mask id="ax" mask-type="alpha"><g filter="url(#s)"><path fill="#fff" d="M0 0h430v430H0z" opacity="0"/><use xmlns:ns10="http://www.w3.org/1999/xlink" ns10:href="#t"/></g></mask><mask id="aw" mask-type="alpha"><g filter="url(#u)"><path fill="#fff" d="M0 0h430v430H0z" opacity="0"/><use xmlns:ns11="http://www.w3.org/1999/xlink" ns11:href="#v"/></g></mask><mask id="au" mask-type="alpha"><g filter="url(#w)"><path fill="#fff" d="M0 0h430v430H0z" opacity="0"/><use xmlns:ns12="http://www.w3.org/1999/xlink" ns12:href="#x"/></g></mask><mask id="at" mask-type="alpha"><g filter="url(#y)"><path fill="#fff" d="M0 0h430v430H0z" opacity="0"/><use xmlns:ns13="http://www.w3.org/1999/xlink" ns13:href="#z"/></g></mask><mask id="ao" mask-type="alpha"><g filter="url(#A)"><path fill="#fff" d="M0 0h430v430H0z" opacity="0"/><use xmlns:ns14="http://www.w3.org/1999/xlink" ns14:href="#B"/></g></mask><mask id="as" mask-type="alpha"><g filter="url(#C)"><path fill="#fff" d="M0 0h430v430H0z" opacity="0"/><use xmlns:ns15="http://www.w3.org/1999/xlink" ns15:href="#D"/></g></mask><mask id="al" mask-type="alpha"><g filter="url(#E)"><path fill="#fff" d="M0 0h430v430H0z" opacity="0"/><use xmlns:ns16="http://www.w3.org/1999/xlink" ns16:href="#F"/></g></mask><mask id="ak" mask-type="alpha"><g filter="url(#G)"><path fill="#fff" d="M0 0h430v430H0z" opacity="0"/><use xmlns:ns17="http://www.w3.org/1999/xlink" ns17:href="#H"/></g></mask><mask id="aj" mask-type="alpha"><g filter="url(#I)"><path fill="#fff" d="M0 0h430v430H0z" opacity="0"/><use xmlns:ns18="http://www.w3.org/1999/xlink" ns18:href="#J"/></g></mask><mask id="ah" mask-type="alpha"><g filter="url(#K)"><path fill="#fff" d="M0 0h430v430H0z" opacity="0"/><use xmlns:ns19="http://www.w3.org/1999/xlink" ns19:href="#L"/></g></mask><mask id="ag" mask-type="alpha"><g filter="url(#M)"><path fill="#fff" d="M0 0h430v430H0z" opacity="0"/><use xmlns:ns20="http://www.w3.org/1999/xlink" ns20:href="#N"/></g></mask><mask id="ab" mask-type="alpha"><g filter="url(#O)"><path fill="#fff" d="M0 0h430v430H0z" opacity="0"/><use xmlns:ns21="http://www.w3.org/1999/xlink" ns21:href="#P"/></g></mask><mask id="af" mask-type="alpha"><g filter="url(#Q)"><path fill="#fff" d="M0 0h430v430H0z" opacity="0"/><use xmlns:ns22="http://www.w3.org/1999/xlink" ns22:href="#R"/></g></mask><mask id="Y" mask-type="alpha"><g filter="url(#S)"><path fill="#fff" d="M0 0h430v430H0z" opacity="0"/><use xmlns:ns23="http://www.w3.org/1999/xlink" ns23:href="#T"/></g></mask><path id="d" style="display:none"/><path id="f" style="display:none"/><path id="h" style="display:none"/><path id="n" style="display:none"/><path id="j" style="display:none"/><path id="l" style="display:none"/><path id="r" style="display:none"/><path id="t" style="display:none"/><path id="v" style="display:none"/><path id="D" style="display:none"/><path id="x" style="display:none"/><path id="z" style="display:none"/><path id="F" style="display:none"/><path id="H" style="display:none"/><path id="J" style="display:none"/><path id="R" style="display:none"/><path id="L" style="display:none"/><path id="N" style="display:none"/><g id="b" clip-path="url(#U)" style="display:none"><path/><path fill-opacity="0" stroke-linecap="round" stroke-linejoin="round" class="primary"/><path fill-opacity="0" stroke-linecap="round" stroke-linejoin="round" class="primary"/><path fill-opacity="0" stroke-linecap="round" stroke-linejoin="round" class="primary"/><path fill-opacity="0" stroke-linecap="round" stroke-linejoin="round" class="secondary"/><path fill-opacity="0" stroke-linecap="round" stroke-linejoin="round" class="primary"/><path fill-opacity="0" stroke-linecap="round" stroke-linejoin="round" class="primary"/><path fill-opacity="0" stroke-linecap="round" stroke-linejoin="round" class="primary"/><path fill-opacity="0" stroke-linecap="round" stroke-linejoin="round" class="primary"/><path fill-opacity="0" stroke-linecap="round" stroke-linejoin="round" class="primary"/><path fill-opacity="0" stroke-linecap="round" stroke-linejoin="round" class="secondary"/><path fill-opacity="0" stroke-linecap="round" stroke-linejoin="round" class="primary"/><path fill-opacity="0" stroke-linecap="round" stroke-linejoin="round" class="primary"/><path fill-opacity="0" stroke-linecap="round" stroke-linejoin="round" class="primary"/><path fill-opacity="0" stroke-linecap="round" stroke-linejoin="round" class="primary"/></g><g id="p" style="display:block"><path fill-opacity="0" stroke="#FFF" stroke-linecap="round" stroke-linejoin="round" stroke-width="36" d="M214.98 53.188V26.909m-10.156 52.068V63.343c0-5.603 4.545-10.156 10.156-10.156 2.81 0 5.345 1.138 7.186 2.979a10.146 10.146 0 0 1 2.97 7.177v15.634m-10.156-1.926s0 0 0 0c14.557 0 26.675 11.308 27.533 25.84.25 4.241 1.081 8.083 2.887 10.653h-60.84c1.806-2.57 2.637-6.412 2.887-10.653.858-14.532 12.976-25.84 27.533-25.84zM191.059 115 191 274.734l48.124-.344V113.543"/><path fill="#FFF" d="M214.98 53.188V26.909m-10.156 52.068V63.343c0-5.603 4.545-10.156 10.156-10.156 2.81 0 5.345 1.138 7.186 2.979a10.146 10.146 0 0 1 2.97 7.177v15.634m-10.156-1.926c14.557 0 26.675 11.308 27.533 25.84.25 4.241 1.081 8.083 2.887 10.653h-60.84c1.806-2.57 2.637-6.412 2.887-10.653.858-14.532 12.976-25.84 27.533-25.84zM191.059 115 191 274.734l48.124-.344V113.543"/></g><g id="B" style="display:none"><path/><path fill-opacity="0" stroke-linecap="round" stroke-linejoin="round"/><path fill-opacity="0" stroke-linecap="round" stroke-linejoin="round"/><path fill-opacity="0" stroke-linecap="round" stroke-linejoin="round"/><path fill-opacity="0" stroke-linecap="round" stroke-linejoin="round"/></g><g id="P" style="display:none"><path/><path fill-opacity="0" stroke-linecap="round" stroke-linejoin="round"/><path fill-opacity="0" stroke-linecap="round" stroke-linejoin="round"/><path fill-opacity="0" stroke-linecap="round" stroke-linejoin="round"/><path fill-opacity="0" stroke-linecap="round" stroke-linejoin="round"/></g><g id="T" style="display:none"><path fill-opacity="0" stroke-linecap="round" stroke-linejoin="round"/><path/><path fill-opacity="0" stroke-linecap="round" stroke-linejoin="round"/><path/><path fill-opacity="0" stroke-linecap="round" stroke-linejoin="round"/><path/><path fill-opacity="0" stroke-linecap="round" stroke-linejoin="round"/><path/></g></defs><g clip-path="url(#V)"><g clip-path="url(#W)" style="display:none"><g fill="none" style="display:none"><path class="primary"/><path class="secondary"/></g><g fill="none" clip-path="url(#X)" mask="url(#Y)" style="display:none"><g style="display:none"><path class="secondary"/><path class="secondary"/></g><g style="display:none"><path class="secondary"/><path class="secondary"/></g></g><g fill="none" style="display:none"><path class="primary"/><path class="primary"/></g><g style="display:none"><path/><path fill="none" class="primary"/><path fill="none" class="primary"/></g><g fill="none" style="display:none"><path class="secondary"/><path class="secondary"/></g><g fill="none" style="display:none"><path class="secondary"/><path class="primary"/><path class="primary"/><path class="primary"/><path class="primary"/><path class="primary"/><path class="primary"/><path class="secondary"/><path class="secondary"/></g><g style="display:none"><path/><path fill="none" class="primary"/><path fill="none" class="primary"/></g><g fill="none" style="display:none"><path class="secondary"/><path class="primary"/><path class="secondary"/></g></g><g clip-path="url(#Z)" style="display:none"><g fill="none" clip-path="url(#aa)" mask="url(#ab)" style="display:none"><g style="display:none"><path class="secondary"/><path class="secondary"/></g><g style="display:none"><path class="secondary"/><path class="secondary"/></g></g><g fill="none" clip-path="url(#ac)" style="display:none"><path class="secondary"/><path class="secondary"/><path class="secondary"/><path class="secondary"/><path class="secondary"/><path class="secondary"/></g><path fill="none" class="primary" style="display:none"/><g fill="none" style="display:none"><path class="secondary"/><path class="primary"/></g><g fill="none" style="display:none"><path class="secondary"/><path class="primary"/></g><g fill="none" clip-path="url(#ad)" style="display:none"><path class="primary"/><path class="primary"/></g><g fill="none" clip-path="url(#ae)" style="display:none"><path class="secondary"/><path class="primary"/></g><g fill="none" mask="url(#af)" style="display:none"><path class="secondary"/><path class="secondary"/><path class="secondary"/><path class="secondary"/><path class="secondary"/><path class="secondary"/><path class="secondary"/><path class="secondary"/><path class="secondary"/><path class="primary"/><path class="primary"/><path class="primary"/><path class="primary"/><path class="primary"/><path class="primary"/></g><g fill="none" mask="url(#ag)" style="display:none"><path class="primary"/><path class="primary"/><path class="primary"/><path class="secondary"/><path class="secondary"/></g><g fill="none" mask="url(#ah)" style="display:none"><path class="secondary"/><path class="primary"/><path class="secondary"/></g><g fill="none" style="display:none"><path class="primary"/><path class="primary"/></g><g fill="none" clip-path="url(#ai)" style="display:none"><path class="secondary"/><path class="primary"/></g><g fill="none" style="display:none"><path class="primary"/><path class="secondary"/><path class="primary"/><path class="primary"/><path class="primary"/><path class="secondary"/></g><g fill="none" style="display:none"><path class="secondary"/><path class="primary"/></g><g fill="none" style="display:none"><path class="secondary"/><path class="primary"/></g><path fill="none" class="primary" style="display:none"/><g mask="url(#aj)" style="display:none"><path fill="none" class="primary"/></g><g fill="none" mask="url(#ak)" style="display:none"><path class="primary"/><path class="primary"/></g><g fill="none" mask="url(#al)" style="display:none"><path class="primary"/><path class="primary"/></g><g fill="none" style="display:none"><path class="primary"/><path class="primary"/><path class="primary"/><path class="secondary"/></g><g fill="none" style="display:none"><path class="primary"/><path class="primary"/><path class="primary"/><path class="primary"/><path class="primary"/><path class="primary"/><path class="primary"/><path class="secondary"/><path class="primary"/></g><path fill="none" class="primary" style="display:none"/></g><g clip-path="url(#am)" style="display:none"><g fill="none" clip-path="url(#an)" mask="url(#ao)" style="display:none"><g style="display:none"><path class="secondary"/><path class="secondary"/></g><g style="display:none"><path class="secondary"/><path class="secondary"/></g></g><g fill="none" clip-path="url(#ap)" style="display:none"><path class="secondary"/><path class="secondary"/><path class="secondary"/><path class="secondary"/><path class="secondary"/><path class="secondary"/></g><path fill="none" class="primary" style="display:none"/><g fill="none" style="display:none"><path class="secondary"/><path class="primary"/></g><g fill="none" style="display:none"><path class="secondary"/><path class="primary"/></g><g fill="none" clip-path="url(#aq)" style="display:none"><path class="primary"/><path class="primary"/></g><g fill="none" clip-path="url(#ar)" style="display:none"><path class="secondary"/><path class="primary"/></g><g fill="none" mask="url(#as)" style="display:none"><path class="secondary"/><path class="secondary"/><path class="secondary"/><path class="secondary"/><path class="secondary"/><path class="secondary"/><path class="secondary"/><path class="secondary"/><path class="secondary"/><path class="primary"/><path class="primary"/><path class="primary"/><path class="primary"/><path class="primary"/><path class="primary"/></g><g fill="none" mask="url(#at)" style="display:none"><path class="primary"/><path class="primary"/><path class="primary"/><path class="secondary"/><path class="secondary"/></g><g fill="none" mask="url(#au)" style="display:none"><path class="secondary"/><path class="primary"/><path class="secondary"/></g><g fill="none" style="display:none"><path class="primary"/><path class="primary"/></g><g fill="none" clip-path="url(#av)" style="display:none"><path class="secondary"/><path class="primary"/></g><g fill="none" style="display:none"><path class="primary"/><path class="secondary"/><path class="primary"/><path class="primary"/><path class="primary"/><path class="secondary"/></g><g fill="none" style="display:none"><path class="secondary"/><path class="primary"/></g><g fill="none" style="display:none"><path class="secondary"/><path class="primary"/></g><path fill="none" class="primary" style="display:none"/><g mask="url(#aw)" style="display:none"><path fill="none" class="primary"/></g><g fill="none" mask="url(#ax)" style="display:none"><path class="primary"/><path class="primary"/></g><g fill="none" mask="url(#ay)" style="display:none"><path class="primary"/><path class="primary"/></g><g fill="none" style="display:none"><path class="primary"/><path class="primary"/><path class="primary"/><path class="secondary"/></g><g fill="none" style="display:none"><path class="primary"/><path class="primary"/><path class="primary"/><path class="primary"/><path class="primary"/><path class="primary"/><path class="primary"/><path class="secondary"/><path class="primary"/></g><path fill="none" class="primary" style="display:none"/></g><g clip-path="url(#az)" style="display:block"><g fill="none" stroke="#08A88A" stroke-linecap="round" stroke-linejoin="round" stroke-width="12" clip-path="url(#aA)" mask="url(#aB)" style="display:block"><g style="display:block"><path d="M275.249 91.417c1.834-7.053-3.191-13.91-10.049-15.544-8.461-2.016-16.331 5.523-15.068 14.126-7.161 4.013-11.995 11.677-11.995 20.463 0 12.949 10.494 23.443 23.443 23.443h67.493c15.668 0 28.366-12.698 28.366-28.366 0-12.123-7.602-22.466-18.296-26.524" class="secondary"/><path d="M342.217 103.594c1.485-8.271.418-16.935-3.075-24.58-6.536-14.311-20.97-24.258-37.732-24.258-15.377 0-29.054 8.681-36.21 21.117" class="secondary"/></g><g style="display:block"><path d="M521.249 91.417c1.834-7.053-3.191-13.91-10.049-15.544-8.461-2.016-16.331 5.523-15.068 14.126-7.161 4.013-11.995 11.677-11.995 20.463 0 12.949 10.494 23.443 23.443 23.443h67.493c15.668 0 28.366-12.698 28.366-28.366 0-12.123-7.602-22.466-18.296-26.524" class="secondary"/><path d="M588.217 103.594c1.485-8.271.418-16.935-3.075-24.58-6.536-14.311-20.97-24.258-37.732-24.258-15.377 0-29.054 8.681-36.21 21.117" class="secondary"/></g></g><g clip-path="url(#aC)" style="display:block"><g clip-path="url(#aD)" style="display:block" transform="translate(-35 -35)"><path fill="none" stroke="#08A88A" stroke-linecap="round" stroke-linejoin="round" stroke-width="12" d="M155.786 410.12h31.029m126.37 0h31.029m-125.613-12.08h62.798m471.387 12.08h31.029m126.37 0h31.029m-125.613-12.08h62.798m-463.613-.381h41.029m166.37 0h71.029M487.601 410.5h102.798m397.387-.38h31.029m126.37 0h31.029m-125.613-12.08h62.798m219.387 12.08h31.029m126.37 0h31.029m-125.613-12.08h62.798m-211.613-.381h41.029" class="secondary"/></g><path fill="none" stroke="#121331" stroke-linecap="round" stroke-linejoin="round" stroke-width="12" d="M155.931 20.293 140.086-3.806c-6.644-10.105-20.226-16.488-35.084-16.488h-3.024l-120.263.001h-86.717c-14.858 0-28.44 6.383-35.084 16.488l-15.845 24.099" class="primary" style="display:block" transform="translate(214.812 355.724)"/><g fill="none" stroke-linecap="round" stroke-linejoin="round" stroke-width="12" style="display:block"><path stroke="#08A88A" d="M166.958 211.63v7.708" class="secondary"/><path stroke="#121331" d="M190.836 164.266s0 0 0 0c-8.426 0-16.219 4.331-20.799 11.404-3.255 5.027-7.655 9.799-12.608 9.732-20.112-.273-22.843 14.79-22.843 14.79l-.125 17.862" class="primary"/></g><g fill="none" stroke-linecap="round" stroke-linejoin="round" stroke-width="12" style="display:block"><path stroke="#08A88A" d="M263.002 211.63v7.708" class="secondary"/><path stroke="#121331" d="M239.125 164.266s0 0 0 0c8.426 0 16.219 4.331 20.799 11.404 3.255 5.027 7.655 9.799 12.608 9.732 20.112-.273 22.843 14.79 22.843 14.79l.125 17.862" class="primary"/></g><g clip-path="url(#aE)" style="display:block" transform="translate(-35 -35)"><path fill="none" stroke="#121331" stroke-linecap="round" stroke-linejoin="round" stroke-width="12" d="m147.713 269.554 14.494-29.964 14.494 29.964m-.001.004h-28.988v100.874H176.7V269.558z" class="primary"/></g><g fill="none" stroke-linecap="round" stroke-linejoin="round" stroke-width="12" clip-path="url(#aF)" style="display:block" transform="translate(-25.354 -35)"><path stroke="#08A88A" d="M240 169.306v-26.278" class="secondary"/><path stroke="#121331" d="M229.844 195.095v-15.634c0-5.603 4.545-10.156 10.156-10.156 2.81 0 5.345 1.138 7.186 2.979a10.146 10.146 0 0 1 2.97 7.177v15.634" class="primary"/></g><g fill="none" stroke-linecap="round" stroke-linejoin="round" stroke-width="12" mask="url(#aG)" style="display:block"><path stroke="#08A88A" d="M350.98 208.963v-15.778m0-46.391v-15.778m-43 77.947v-15.778m0-46.391v-15.778m-45 77.947v-15.778m0-46.391v-15.778" class="secondary" opacity="0"/><path stroke="#08A88A" d="M214.98 208.963v-15.778m0-46.391v-15.778m0-77.828V26.91" class="secondary"/><path stroke="#121331" d="M204.824 78.977V63.343c0-5.603 4.545-10.156 10.156-10.156 2.81 0 5.345 1.138 7.186 2.979a10.146 10.146 0 0 1 2.97 7.177v15.634" class="primary"/><path stroke="#121331" d="M214.98 77.051s0 0 0 0c14.557 0 26.675 11.308 27.533 25.84.25 4.241 1.081 8.082 2.887 10.652h-60.84c1.806-2.57 2.637-6.411 2.887-10.652.858-14.532 12.976-25.84 27.533-25.84zm-24.144 36.493V274.14m48.289.25V113.544m-.001 119.232h-48.288m48.288-68.51h-48.288" class="primary"/></g><g fill="none" stroke-linecap="round" stroke-linejoin="round" stroke-width="12" mask="url(#aH)" style="display:block"><path stroke="#121331" d="M253.087 294.813v39.496m-.094-39.496v39.496" class="primary"/><path stroke="#121331" d="M252.993 294.813v39.496" class="primary" opacity="0"/><path stroke="#08A88A" d="M265.571 293.367h.188m-26.249-18.612c-11.51-3.755-24.04-3.75-24.04-3.75" class="secondary"/></g><g fill="none" stroke-linecap="round" stroke-linejoin="round" stroke-width="12" mask="url(#aI)" style="display:block"><path stroke="#08A88A" d="M202.225 335.432V299.83h25.51v35.602" class="secondary"/><path stroke="#121331" d="M253.246 280.509v54.922h-76.532v-54.922" class="primary"/><path stroke="#08A88A" d="M164.392 294.186c4.581-13.172 25.488-23.12 50.588-23.12s46.007 9.948 50.588 23.12" class="secondary"/></g><path fill="none" stroke="#121331" stroke-linecap="round" stroke-linejoin="round" stroke-width="12" d="m287.942 234.554 14.494-29.964 14.494 29.964m-28.988 0h28.988v100.878h-28.988V234.554z" class="primary" style="display:block"/><g fill="none" stroke-linecap="round" stroke-linejoin="round" stroke-width="12" clip-path="url(#aJ)" opacity="0" style="display:block" transform="translate(-25.354 -35)"><path stroke="#08A88A" d="M240 169.306v-26.278" class="secondary" opacity="1"/><path stroke="#121331" d="M229.844 195.095v-15.634c0-5.603 4.545-10.156 10.156-10.156 2.81 0 5.345 1.138 7.186 2.979a10.146 10.146 0 0 1 2.97 7.177v15.634" class="primary" opacity="1"/></g><g fill="none" stroke-linecap="round" stroke-linejoin="round" stroke-width="12" opacity="0" style="display:block"><g opacity="1"><path stroke="#121331" d="M317.5 289.988v45.244" class="primary" opacity="1"/><path stroke="#08A88A" d="M317.631 270.868h-.049s0 0 0 0c-.048 2.366-.082 10.005-.082 18.703v.417h.131" class="secondary" opacity="1"/></g><path stroke="#121331" d="m317.346 232.776.285-.198m-24.785-43.717-.036.096 24.821 43.621v99.939m.167-19.907v20.312" class="primary" opacity="1"/><path stroke="#08A88A" d="M317.739 260.566c0 5.689.026 10.302.059 10.302s.06-4.613.06-10.302c0-5.689-.027-10.302-.06-10.302s-.059 4.613-.059 10.302z" class="secondary" opacity="1"/></g><g fill="none" stroke-linecap="round" stroke-linejoin="round" stroke-width="12" opacity="0" style="display:block"><path stroke="#08A88A" d="M314.173 251.89v30.511m-.07-30.511v48m-.034-48v48m-.035-48v48m.278-48v48m-.035-48v48m-.034-48v48" class="secondary" opacity="1"/><path stroke="#121331" d="M314 251.89v83.646m.136.238V233.12l-13.983-27.915 14.054 27.915v102.654M300.01 204.935h-.164m14.29 27.945h-.126m.336 0h-.139m-74.861-67.114s12.654.108 19.928 11.569c4.358 6.865 5.978 9.449 17.768 9.222 5.697-.11 14.833 4.693 18.258 12.388.031 1.601 4.671 6.057 4.671 6.057l14.405 28.976-.03 101.556m-.173-22.622v20.313M239.51 165.766h-.164" class="primary" opacity="1"/></g><g fill="none" style="display:none"><path class="secondary"/><path class="primary"/></g><path fill="none" class="primary" style="display:none"/><g mask="url(#aK)" style="display:none"><path fill="none" class="primary"/></g><g fill="none" mask="url(#aL)" style="display:none"><path class="primary"/><path class="primary"/></g><g fill="none" mask="url(#aM)" style="display:none"><path class="primary"/><path class="primary"/></g><g fill="none" style="display:none"><path class="primary"/><path class="primary"/><path class="primary"/><path class="secondary"/></g><g fill="none" style="display:none"><path class="primary"/><path class="primary"/><path class="primary"/><path class="primary"/><path class="primary"/><path class="primary"/><path class="primary"/><path class="secondary"/><path class="primary"/></g><path fill="none" class="primary" style="display:none"/></g></g><g fill="none" clip-path="url(#aN)" style="display:none"><g clip-path="url(#aO)" style="display:none"><path class="primary"/><path class="primary"/><path class="secondary"/><path class="primary"/><path class="secondary"/><path class="secondary"/><path class="secondary"/><path class="secondary"/><path class="secondary"/><path class="primary"/><path class="primary"/><path class="primary"/><path class="primary"/><path class="primary"/><path class="secondary"/><path class="secondary"/><path class="primary"/><path class="primary"/><path class="primary"/><path class="primary"/><path class="primary"/><path class="primary"/></g><g clip-path="url(#aP)" mask="url(#aQ)" style="display:none"><path class="secondary" style="display:none"/><path class="secondary" style="display:none"/><path class="secondary" style="display:none"/><path class="secondary" style="display:none"/><path class="secondary" style="display:none"/><path class="secondary" style="display:none"/><path class="secondary" style="display:none"/></g></g></g></svg>