<svg xmlns="http://www.w3.org/2000/svg" width="430" height="430" style="width:100%;height:100%;transform:translate3d(0,0,0);content-visibility:visible" viewBox="0 0 430 430"><defs><clipPath id="a"><path d="M0 0h430v430H0z"/></clipPath><clipPath id="f"><path d="M0 0h430v430H0z"/></clipPath><clipPath id="e"><path d="M0 0h430v430H0z"/></clipPath><clipPath id="d"><path d="M0 0h430v430H0z"/></clipPath><clipPath id="c"><path d="M0 0h430v430H0z"/></clipPath><clipPath id="b"><path d="M0 0h430v430H0z"/></clipPath></defs><g fill="none" clip-path="url(#a)"><g clip-path="url(#b)" style="display:none"><path class="primary" style="display:none"/><path class="primary" style="display:none"/><path class="primary" style="display:none"/><path class="primary" style="display:none"/><path class="secondary" style="display:none"/><path class="secondary" style="display:none"/></g><g clip-path="url(#c)" style="display:none"><path class="primary" style="display:none"/><path class="primary" style="display:none"/><path class="primary" style="display:none"/><path class="primary" style="display:none"/><path class="secondary" style="display:none"/></g><g stroke-linejoin="round" stroke-width="12" clip-path="url(#d)" style="display:block"><path stroke="#121331" stroke-linecap="round" d="M160 0h-320" class="primary" style="display:block" transform="translate(215 375)"/><path stroke="#121331" d="M-35 50V-50h70V50" class="primary" style="display:block" transform="translate(115 325)"/><path stroke="#121331" d="M-35 95V-95h70V95" class="primary" style="display:block" transform="translate(215 280)"/><path stroke="#121331" d="M-35 140v-280h70v280" class="primary" style="display:block" transform="translate(315 235)"/><path stroke="#08A88A" stroke-linecap="round" d="M250 115V55h-60m60 0L80 215" class="secondary" style="display:block"/><path stroke="#08A88A" stroke-linecap="round" d="M250 115V55h-60m60 0L80 215" class="secondary" style="display:none"/></g><g clip-path="url(#e)" style="display:none"><path class="primary" style="display:none"/><path class="primary" style="display:none"/><path class="primary" style="display:none"/><path class="primary" style="display:none"/><path class="secondary" style="display:none"/></g><g clip-path="url(#f)" style="display:none"><path class="primary" style="display:none"/><path class="primary" style="display:none"/><path class="primary" style="display:none"/><path class="primary" style="display:none"/><path class="secondary" style="display:none"/></g></g></svg>